# 3ds Max Wavefront OBJ Exporter v0.97b - (c)2007 guruware
# File Created: 15.11.2017 15:01:16

mtllib hexagonPR.mtl

#
# object Cylinder002
#

v  19.5562 0.0000 -29.2563
v  19.0562 0.0000 -29.2563
v  18.8062 0.0000 -29.6893
v  19.0562 0.0000 -30.1223
v  19.5562 0.0000 -30.1223
v  19.8062 0.0000 -29.6893
v  19.5562 0.0700 -30.1223
v  19.8062 0.0700 -29.6893
v  19.0562 0.0700 -30.1223
v  18.8062 0.0700 -29.6893
v  19.0562 0.0700 -29.2563
v  19.5562 0.0700 -29.2563
v  19.5389 0.1000 -29.2863
v  19.7716 0.1000 -29.6893
v  19.5389 0.1000 -30.0923
v  19.0735 0.1000 -30.0923
v  18.8408 0.1000 -29.6893
v  19.0735 0.1000 -29.2863
# 18 vertices

vn 0.3962 -0.6100 0.6862
vn -0.3962 -0.6100 0.6862
vn -0.7924 -0.6100 0.0000
vn -0.3962 -0.6100 -0.6862
vn 0.3962 -0.6100 -0.6862
vn 0.7924 -0.6100 0.0000
vn 0.4640 0.3724 -0.8037
vn 0.9281 0.3724 0.0000
vn -0.4640 0.3724 -0.8037
vn -0.9281 0.3724 0.0000
vn -0.4640 0.3724 0.8037
vn 0.4640 0.3724 0.8037
vn 0.2211 0.8969 0.3830
vn 0.4423 0.8969 -0.0000
vn 0.2211 0.8969 -0.3830
vn -0.2211 0.8969 -0.3830
vn -0.4423 0.8969 0.0000
vn -0.2211 0.8969 0.3830
# 18 vertex normals

vt 0.3333 0.0000 -0.0000
vt 0.0833 0.0000 -1.0000
vt 0.2500 0.0000 -1.0000
vt 0.6667 0.0000 0.0000
vt 0.9167 0.0000 1.0000
vt 0.7500 0.0000 1.0000
vt 0.9167 0.7000 1.0000
vt 0.7500 0.7000 1.0000
vt -0.0833 0.0000 1.0000
vt 0.0833 0.0000 1.0000
vt 0.0833 0.7000 1.0000
vt -0.0833 0.7000 1.0000
vt 0.2500 0.0000 1.0000
vt 0.2500 0.7000 1.0000
vt 0.4167 0.0000 1.0000
vt 0.4167 0.7000 1.0000
vt 0.5833 0.0000 1.0000
vt 0.5833 0.7000 1.0000
vt 0.5821 1.0000 0.9750
vt 0.7437 1.0000 0.9750
vt 0.9054 1.0000 0.9750
vt 0.6629 1.0000 0.0050
vt 0.2588 1.0000 -0.9650
vt 0.0971 1.0000 -0.9650
vt 1.4621 0.7204 0.0217
vt 1.0079 0.1612 0.7217
vt 1.0683 0.7312 -0.8484
vt 0.7550 0.1935 -0.1484
vt -0.6729 1.2810 -0.8484
vt 0.0762 1.8431 -0.8484
vt 1.3937 0.7190 0.8917
vt 0.4113 0.1569 -0.5083
# 32 texture coords

o Cylinder002
g Cylinder002
usemtl wire_154185229
s 1
f 1/1/1 2/2/2 3/3/3 4/4/4 5/5/5 6/6/6 
s 2
f 6/6/6 5/5/5 7/7/7 8/8/8 
s 4
f 5/9/5 4/10/4 9/11/9 7/12/7 
s 2
f 4/10/4 3/13/3 10/14/10 9/11/9 
s 4
f 3/13/3 2/15/2 11/16/11 10/14/10 
s 2
f 2/15/2 1/17/1 12/18/12 11/16/11 
s 4
f 1/17/1 6/6/6 8/8/8 12/18/12 
s 1
f 13/19/13 14/20/14 15/21/15 16/22/16 17/23/17 18/24/18 
s 8
f 7/7/7 15/21/15 14/20/14 8/8/8 
s 16
f 9/25/9 16/22/16 15/21/15 7/26/7 
s 8
f 10/27/10 17/23/17 16/22/16 9/28/9 
s 16
f 11/29/11 18/24/18 17/23/17 10/30/10 
s 8
f 12/31/12 13/19/13 18/24/18 11/32/11 
s 16
f 8/8/8 14/20/14 13/19/13 12/18/12 
# 14 polygons

